<?xml version="1.0" standalone="no"?>
<!DOCTYPE svg PUBLIC "-//W3C//DTD SVG 20010904//EN"
 "http://www.w3.org/TR/2001/REC-SVG-20010904/DTD/svg10.dtd">
<svg version="1.0" xmlns="http://www.w3.org/2000/svg"
 width="310.000000pt" height="327.000000pt" viewBox="0 0 310.000000 327.000000"
 preserveAspectRatio="xMidYMid meet">

<g transform="translate(0.000000,327.000000) scale(0.100000,-0.100000)"
fill="currentColor" stroke="none">
<path d="M1765 3170 c-55 -28 -163 -122 -230 -200 -53 -63 -125 -187 -125
-217 0 -23 -15 -12 -59 44 -85 108 -237 211 -365 248 -68 20 -277 18 -298 -3
-9 -9 -1 -34 35 -104 79 -159 210 -280 381 -353 36 -15 66 -31 66 -35 0 -4
-40 -10 -88 -13 -310 -22 -600 -217 -775 -522 -188 -326 -215 -796 -67 -1156
154 -373 484 -631 930 -726 133 -28 507 -25 649 5 520 113 874 405 1030 854
48 137 63 228 63 378 0 406 -211 837 -496 1009 -75 45 -161 78 -273 106 -53
13 -97 25 -99 27 -2 2 31 39 72 82 42 42 74 79 71 82 -3 3 -50 15 -104 26
-133 28 -278 28 -357 1 l-58 -21 6 30 c9 45 72 143 114 178 20 17 74 48 118
70 109 52 119 80 57 158 -21 26 -45 52 -53 59 -23 19 -100 15 -145 -7z m-546
-891 c89 -59 159 -81 263 -82 85 -1 88 -1 191 51 125 63 173 71 303 48 304
-52 562 -285 657 -591 72 -231 61 -497 -28 -719 -107 -265 -349 -486 -637
-580 -169 -55 -261 -70 -448 -70 -187 0 -277 14 -448 70 -350 114 -575 344
-678 689 -36 120 -46 367 -20 495 74 364 301 629 606 709 122 32 167 28 239
-20z"/>
<path d="M2047 1805 c-15 -7 -126 -105 -248 -217 -287 -264 -327 -298 -347
-298 -9 0 -85 68 -169 151 -144 144 -154 151 -183 145 -66 -13 -128 -83 -116
-130 6 -24 322 -349 400 -412 68 -54 105 -53 180 5 31 24 185 176 341 337 319
327 316 322 253 388 -39 41 -74 50 -111 31z"/>
<path d="M2659 2532 c-64 -41 -121 -112 -89 -112 18 0 198 -181 236 -238 21
-31 42 -61 46 -66 11 -14 112 78 138 126 22 43 22 45 6 80 -21 44 -154 189
-200 217 -45 28 -84 26 -137 -7z"/>
</g>
</svg>
